<svg xmlns="http://www.w3.org/2000/svg" xmlns:xlink="http://www.w3.org/1999/xlink" width="250" zoomAndPan="magnify" viewBox="0 0 187.5 187.499992" height="250" preserveAspectRatio="xMidYMid meet" version="1.0"><defs><clipPath id="e69a0b45d0"><path d="M 48 138 L 129 138 L 129 151.820312 L 48 151.820312 Z M 48 138 " clip-rule="nonzero"/></clipPath><clipPath id="1e720fd691"><path d="M 26.019531 121 L 160.660156 121 L 160.660156 151 L 26.019531 151 Z M 26.019531 121 " clip-rule="nonzero"/></clipPath><clipPath id="aee666f96a"><path d="M 29 35.128906 L 157 35.128906 L 157 100 L 29 100 Z M 29 35.128906 " clip-rule="nonzero"/></clipPath></defs><path fill="#ffffff" d="M 0 0 L 187 0 L 187 187 L 0 187 Z M 0 0 " fill-opacity="1" fill-rule="nonzero"/><path fill="#000000" d="M 0 0 L 187 0 L 187 187 L 0 187 Z M 0 0 " fill-opacity="1" fill-rule="nonzero"/><path fill="#00bf63" d="M 96.59375 95.308594 C 96.636719 95.25 96.675781 95.1875 96.714844 95.125 C 96.753906 95.058594 96.792969 94.996094 96.828125 94.929688 C 96.863281 94.867188 96.898438 94.800781 96.929688 94.730469 C 96.964844 94.664062 96.992188 94.597656 97.023438 94.53125 C 97.050781 94.460938 97.078125 94.390625 97.105469 94.320312 C 97.132812 94.25 97.15625 94.179688 97.175781 94.109375 C 97.199219 94.039062 97.21875 93.96875 97.238281 93.894531 C 97.257812 93.824219 97.273438 93.75 97.289062 93.679688 C 97.304688 93.605469 97.316406 93.53125 97.328125 93.457031 C 97.339844 93.386719 97.347656 93.3125 97.355469 93.238281 C 97.363281 93.164062 97.371094 93.089844 97.375 93.015625 C 97.378906 92.941406 97.378906 92.867188 97.378906 92.792969 C 97.378906 92.71875 97.378906 92.644531 97.375 92.570312 C 97.371094 92.496094 97.367188 92.421875 97.359375 92.347656 C 97.351562 92.273438 97.34375 92.199219 97.332031 92.125 C 97.320312 92.050781 97.308594 91.976562 97.292969 91.90625 C 97.074219 90.859375 96.457031 89.835938 95.554688 89.25 C 94.699219 88.691406 93.78125 88.621094 92.789062 88.605469 C 92.714844 88.613281 92.640625 88.625 92.570312 88.636719 C 92.496094 88.648438 92.421875 88.664062 92.351562 88.679688 C 92.277344 88.695312 92.203125 88.710938 92.132812 88.730469 C 92.0625 88.75 91.988281 88.773438 91.917969 88.792969 C 91.847656 88.816406 91.777344 88.84375 91.707031 88.867188 C 91.636719 88.894531 91.570312 88.921875 91.5 88.953125 C 91.433594 88.984375 91.367188 89.015625 91.300781 89.046875 C 91.230469 89.082031 91.167969 89.117188 91.101562 89.152344 C 91.035156 89.1875 90.972656 89.226562 90.910156 89.265625 C 90.847656 89.304688 90.785156 89.347656 90.722656 89.390625 C 90.664062 89.433594 90.601562 89.476562 90.542969 89.523438 C 90.484375 89.566406 90.425781 89.613281 90.371094 89.664062 C 90.3125 89.710938 90.257812 89.761719 90.203125 89.8125 C 90.152344 89.863281 90.097656 89.917969 90.046875 89.96875 C 89.996094 90.023438 89.945312 90.078125 89.894531 90.136719 C 89.847656 90.191406 89.800781 90.25 89.753906 90.308594 C 89.710938 90.363281 89.671875 90.417969 89.632812 90.472656 C 89.589844 90.527344 89.550781 90.585938 89.515625 90.644531 C 89.480469 90.703125 89.441406 90.761719 89.410156 90.820312 C 89.375 90.878906 89.34375 90.941406 89.3125 91 C 89.28125 91.0625 89.25 91.125 89.222656 91.1875 C 89.195312 91.25 89.167969 91.3125 89.144531 91.378906 C 89.117188 91.441406 89.097656 91.507812 89.074219 91.570312 C 89.050781 91.636719 89.03125 91.703125 89.015625 91.769531 C 88.996094 91.835938 88.980469 91.902344 88.964844 91.96875 C 88.949219 92.035156 88.9375 92.101562 88.925781 92.171875 C 88.914062 92.238281 88.902344 92.304688 88.894531 92.375 C 88.886719 92.441406 88.878906 92.511719 88.875 92.578125 C 88.871094 92.648438 88.867188 92.714844 88.867188 92.785156 C 88.863281 92.851562 88.867188 92.921875 88.867188 92.992188 C 88.871094 93.058594 88.875 93.128906 88.878906 93.195312 C 88.882812 93.265625 88.890625 93.332031 88.902344 93.402344 C 88.910156 93.46875 88.917969 93.539062 88.929688 93.605469 C 88.941406 93.671875 88.953125 93.738281 88.96875 93.808594 C 88.984375 93.875 89 93.941406 89.019531 94.007812 C 89.039062 94.074219 89.058594 94.140625 89.082031 94.203125 C 89.101562 94.269531 89.125 94.332031 89.148438 94.398438 C 89.175781 94.460938 89.203125 94.527344 89.230469 94.589844 C 89.257812 94.652344 89.289062 94.710938 89.320312 94.773438 C 89.351562 94.835938 89.382812 94.894531 89.417969 94.953125 C 89.453125 95.015625 89.488281 95.070312 89.527344 95.128906 C 89.5625 95.1875 89.601562 95.242188 89.644531 95.300781 C 89.683594 95.355469 89.726562 95.410156 89.769531 95.464844 C 89.8125 95.515625 89.855469 95.570312 89.902344 95.621094 C 89.949219 95.671875 89.996094 95.722656 90.042969 95.769531 C 90.09375 95.820312 90.144531 95.867188 90.195312 95.914062 C 90.246094 95.957031 90.296875 96.003906 90.351562 96.046875 C 90.402344 96.089844 90.457031 96.132812 90.511719 96.171875 C 91.5 96.914062 92.507812 97.050781 93.695312 97.054688 C 94.863281 96.851562 95.90625 96.296875 96.59375 95.308594 Z M 96.59375 95.308594 " fill-opacity="1" fill-rule="nonzero"/><path fill="#00bf63" d="M 93.917969 81.859375 C 93.433594 81.828125 92.867188 81.800781 92.390625 81.882812 C 89.507812 82.210938 86.328125 83.578125 84.453125 85.867188 C 84.429688 85.894531 84.410156 85.921875 84.386719 85.949219 C 85.285156 86.855469 86.183594 87.847656 87.199219 88.621094 C 88.605469 86.953125 90.253906 85.839844 92.472656 85.648438 C 93.027344 85.601562 93.585938 85.628906 94.136719 85.652344 C 96.378906 86.054688 97.753906 87.054688 99.3125 88.683594 C 100.152344 87.828125 101.199219 86.960938 101.929688 86.015625 C 99.835938 83.640625 97.125 82.0625 93.917969 81.859375 Z M 93.917969 81.859375 " fill-opacity="1" fill-rule="nonzero"/><path fill="#00bf63" d="M 106.597656 81.117188 C 103.175781 77.570312 98.644531 75.199219 93.648438 75.105469 C 93.210938 75.097656 92.730469 75.078125 92.296875 75.148438 C 87.476562 75.535156 83.265625 77.378906 79.910156 80.925781 C 80.746094 81.824219 81.613281 82.691406 82.511719 83.527344 C 83.296875 82.886719 84.011719 82.128906 84.835938 81.539062 C 87.363281 79.726562 90.980469 78.441406 94.128906 78.859375 C 94.183594 78.867188 94.242188 78.878906 94.300781 78.886719 C 96.945312 79.125 99.46875 80.007812 101.5625 81.667969 C 102.386719 82.316406 103.132812 83.070312 103.96875 83.703125 C 104.820312 82.835938 105.660156 81.886719 106.597656 81.117188 Z M 106.597656 81.117188 " fill-opacity="1" fill-rule="nonzero"/><g clip-path="url(#e69a0b45d0)"><path fill="#00bf63" d="M 119.28125 149.914062 C 109.484375 149.519531 99.972656 145.292969 90.792969 142.214844 C 85.386719 140.402344 79.878906 138.960938 74.1875 138.421875 C 71.8125 138.195312 69.34375 137.933594 66.964844 138.152344 C 60.785156 138.441406 53.675781 139.710938 48.050781 142.386719 C 50.515625 141.851562 52.925781 141.171875 55.429688 140.816406 C 67.769531 139.066406 79.757812 141.785156 91.351562 145.894531 C 97.203125 147.972656 103.132812 150.238281 109.308594 151.152344 C 114.585938 151.867188 119.617188 151.710938 124.804688 150.421875 C 126.144531 150.085938 127.558594 149.726562 128.785156 149.082031 C 125.601562 149.703125 122.53125 150.046875 119.28125 149.914062 Z M 119.28125 149.914062 " fill-opacity="1" fill-rule="nonzero"/></g><path fill="#00bf63" d="M 65.84375 121.765625 C 74.683594 120.636719 82.5 121.667969 91 124.28125 L 91.105469 124.246094 C 91.289062 123.996094 91.363281 121.558594 91.371094 121.09375 C 91.453125 117.734375 91.316406 114.351562 91.300781 110.988281 C 91.285156 107.324219 91.378906 103.65625 91.34375 99.996094 L 91.339844 99.609375 C 91.296875 99.566406 91.265625 99.503906 91.203125 99.488281 C 90.773438 99.371094 86.148438 99.488281 85.355469 99.488281 L 73.34375 99.488281 C 70.859375 99.488281 68.363281 99.441406 65.878906 99.539062 C 65.675781 102.152344 65.839844 104.855469 65.828125 107.484375 C 65.804688 112.234375 65.71875 117.019531 65.84375 121.765625 Z M 65.84375 121.765625 " fill-opacity="1" fill-rule="nonzero"/><g clip-path="url(#1e720fd691)"><path fill="#00bf63" d="M 160.855469 121.007812 C 159.238281 123.300781 157.578125 125.585938 155.675781 127.652344 C 150.015625 133.824219 141.695312 139.480469 133.3125 140.90625 C 123.710938 142.539062 115.789062 138.9375 107.332031 134.929688 C 102.847656 132.800781 98.375 130.621094 93.730469 128.851562 C 92.921875 128.535156 92.105469 128.234375 91.28125 127.953125 C 90.460938 127.671875 89.632812 127.410156 88.796875 127.164062 C 87.964844 126.917969 87.125 126.691406 86.28125 126.484375 C 85.4375 126.277344 84.585938 126.085938 83.734375 125.914062 C 82.882812 125.746094 82.027344 125.59375 81.167969 125.460938 C 80.308594 125.328125 79.445312 125.210938 78.582031 125.117188 C 77.71875 125.019531 76.851562 124.945312 75.984375 124.886719 C 75.117188 124.828125 74.25 124.792969 73.378906 124.773438 C 72.878906 124.761719 72.382812 124.761719 71.882812 124.765625 C 71.382812 124.769531 70.886719 124.78125 70.386719 124.800781 C 69.886719 124.820312 69.390625 124.847656 68.890625 124.878906 C 68.394531 124.914062 67.898438 124.953125 67.398438 125.003906 C 66.902344 125.050781 66.40625 125.105469 65.914062 125.167969 C 65.417969 125.230469 64.921875 125.296875 64.429688 125.375 C 63.9375 125.449219 63.445312 125.535156 62.953125 125.625 C 62.464844 125.714844 61.972656 125.8125 61.484375 125.914062 C 60.996094 126.019531 60.511719 126.132812 60.027344 126.25 C 59.542969 126.367188 59.058594 126.492188 58.578125 126.625 C 58.097656 126.757812 57.617188 126.894531 57.140625 127.042969 C 56.664062 127.1875 56.1875 127.339844 55.714844 127.5 C 55.242188 127.660156 54.773438 127.824219 54.304688 128 C 53.835938 128.171875 53.371094 128.351562 52.90625 128.535156 C 52.445312 128.722656 51.984375 128.917969 51.527344 129.117188 C 51.070312 129.316406 50.617188 129.519531 50.164062 129.734375 C 41.773438 133.644531 32.355469 141.273438 26.949219 148.785156 C 26.671875 149.167969 26.417969 149.566406 26.183594 149.980469 L 26.132812 150.140625 C 26.550781 150.109375 27.765625 148.671875 28.109375 148.332031 C 30.390625 146.09375 33.019531 144.128906 35.648438 142.320312 C 43.300781 137.0625 52.332031 133.171875 61.597656 132.078125 C 62.082031 132.023438 62.566406 131.972656 63.050781 131.933594 C 63.539062 131.890625 64.023438 131.855469 64.507812 131.824219 C 64.996094 131.796875 65.480469 131.773438 65.96875 131.757812 C 66.457031 131.742188 66.941406 131.734375 67.429688 131.730469 C 67.914062 131.730469 68.402344 131.734375 68.890625 131.746094 C 69.375 131.753906 69.863281 131.773438 70.347656 131.796875 C 70.835938 131.820312 71.320312 131.851562 71.808594 131.886719 C 72.292969 131.925781 72.777344 131.96875 73.261719 132.019531 C 73.746094 132.066406 74.230469 132.125 74.710938 132.1875 C 75.195312 132.25 75.675781 132.320312 76.15625 132.398438 C 76.640625 132.472656 77.117188 132.554688 77.597656 132.644531 C 78.074219 132.734375 78.554688 132.828125 79.03125 132.929688 C 79.503906 133.03125 79.980469 133.140625 80.453125 133.257812 C 80.925781 133.371094 81.398438 133.492188 81.867188 133.621094 C 82.339844 133.746094 82.804688 133.878906 83.273438 134.019531 C 83.738281 134.160156 84.203125 134.308594 84.664062 134.460938 C 92.46875 136.992188 99.523438 141.203125 107.117188 144.21875 C 110.464844 145.550781 113.832031 146.734375 117.394531 147.332031 C 131.640625 149.714844 144.101562 143.355469 153.273438 132.742188 C 155.785156 129.832031 158.78125 125.667969 160.441406 122.164062 C 160.566406 121.898438 160.871094 121.394531 160.875 121.105469 C 160.878906 121.070312 160.863281 121.042969 160.859375 121.011719 Z M 160.855469 121.007812 " fill-opacity="1" fill-rule="nonzero"/></g><path fill="#00bf63" d="M 95.074219 125.777344 C 98.839844 127.382812 102.617188 129.058594 106.234375 130.980469 C 109.796875 132.871094 113.234375 135.058594 116.972656 136.601562 C 118.046875 137.042969 119.152344 137.464844 120.273438 137.769531 C 120.339844 129.597656 120.363281 121.421875 120.347656 113.25 C 120.34375 108.6875 120.175781 104.089844 120.34375 99.535156 L 99.765625 99.492188 C 98.183594 99.535156 96.601562 99.550781 95.019531 99.535156 C 94.953125 103.328125 95.058594 107.125 95.0625 110.917969 C 95.066406 115.867188 94.988281 120.828125 95.074219 125.777344 Z M 98.347656 115.003906 C 100.050781 115.003906 101.753906 115.023438 103.457031 115.070312 C 103.5 115.902344 103.445312 116.757812 103.445312 117.597656 C 103.445312 118.558594 103.492188 119.546875 103.421875 120.507812 L 103.316406 120.535156 C 101.664062 120.585938 99.996094 120.550781 98.34375 120.550781 C 98.304688 118.707031 98.242188 116.847656 98.347656 115.003906 Z M 98.347656 115.003906 " fill-opacity="1" fill-rule="nonzero"/><path fill="#00bf63" d="M 133.902344 139.378906 C 135.972656 138.773438 138.121094 138.039062 139.941406 136.871094 L 139.957031 94.914062 C 137.886719 92.824219 135.558594 90.925781 133.367188 88.964844 C 129.148438 85.160156 124.910156 81.382812 120.648438 77.625 L 100.527344 59.585938 C 99.476562 58.644531 93.855469 53.378906 93.117188 53.101562 C 90.753906 54.707031 88.496094 57.058594 86.363281 58.996094 L 76.3125 68 L 57.351562 85.007812 L 50.394531 91.269531 C 49.039062 92.488281 47.628906 93.671875 46.34375 94.964844 C 46.460938 97.882812 46.402344 100.824219 46.402344 103.746094 L 46.417969 118.972656 C 46.421875 121.941406 46.375 124.921875 46.460938 127.890625 C 48.363281 126.871094 50.320312 126.078125 52.242188 125.125 C 52.160156 120.570312 52.261719 116 52.265625 111.441406 C 52.269531 106.882812 52.171875 102.300781 52.292969 97.746094 C 58.96875 91.425781 65.917969 85.375 72.765625 79.238281 L 93.085938 60.9375 C 95.136719 62.757812 97.160156 64.625 99.246094 66.40625 C 106.503906 72.785156 113.621094 79.359375 120.796875 85.835938 C 123.03125 87.859375 125.273438 89.871094 127.53125 91.871094 C 129.648438 93.746094 131.796875 95.597656 133.824219 97.566406 L 133.832031 126.273438 L 133.828125 134.691406 C 133.828125 136.222656 133.71875 137.859375 133.902344 139.378906 Z M 133.902344 139.378906 " fill-opacity="1" fill-rule="nonzero"/><g clip-path="url(#aee666f96a)"><path fill="#00bf63" d="M 34.375 99.574219 C 35.625 99.6875 36.519531 98.832031 37.394531 98.058594 C 41.207031 94.6875 44.871094 91.121094 48.648438 87.703125 L 78.242188 61.070312 C 81.53125 58.09375 84.839844 55.136719 88.167969 52.207031 C 89.816406 50.742188 91.433594 49.234375 93.121094 47.820312 C 95.359375 49.699219 97.582031 51.652344 99.722656 53.640625 C 103.9375 57.347656 108.070312 61.148438 112.246094 64.898438 L 135.199219 85.46875 L 144.558594 93.855469 C 146.320312 95.453125 148.007812 97.214844 149.886719 98.667969 C 150.53125 99.164062 151.132812 99.597656 151.984375 99.550781 C 153.082031 99.488281 153.902344 98.703125 154.574219 97.90625 C 155.566406 96.730469 157.007812 94.765625 156.847656 93.132812 C 156.789062 92.574219 156.519531 92.179688 156.148438 91.773438 C 155.617188 91.195312 154.960938 90.695312 154.371094 90.179688 C 153.347656 89.28125 152.332031 88.382812 151.320312 87.472656 C 148.417969 84.855469 145.496094 82.261719 142.558594 79.683594 C 139.820312 77.289062 137.027344 74.9375 134.507812 72.3125 C 134.417969 64.046875 134.398438 55.78125 134.445312 47.515625 L 124.792969 47.484375 C 123.332031 47.484375 121.851562 47.417969 120.390625 47.464844 C 120.402344 51.457031 120.484375 55.464844 120.390625 59.457031 C 117.410156 57.011719 114.65625 54.355469 111.796875 51.769531 L 101.257812 42.335938 C 99.445312 40.671875 97.617188 39.027344 95.777344 37.390625 C 94.933594 36.644531 94.070312 35.769531 93.144531 35.128906 C 91.921875 36.027344 90.828125 37.113281 89.71875 38.144531 L 85.476562 42.035156 L 71.074219 55.113281 L 43.855469 79.722656 C 39.542969 83.609375 35.109375 87.402344 30.890625 91.386719 C 30.355469 91.890625 29.589844 92.648438 29.5 93.402344 C 29.335938 94.816406 30.617188 96.6875 31.496094 97.726562 C 32.214844 98.578125 33.214844 99.472656 34.375 99.574219 Z M 34.375 99.574219 " fill-opacity="1" fill-rule="nonzero"/></g></svg>