<svg xmlns="http://www.w3.org/2000/svg" xmlns:xlink="http://www.w3.org/1999/xlink" width="250" zoomAndPan="magnify" viewBox="0 0 187.5 187.499992" height="250" preserveAspectRatio="xMidYMid meet" version="1.0"><path fill="#ffffff" d="M 0 0 L 187 0 L 187 187 L 0 187 Z M 0 0 " fill-opacity="1" fill-rule="nonzero"/><path fill="#000000" d="M 0 0 L 187 0 L 187 187 L 0 187 Z M 0 0 " fill-opacity="1" fill-rule="nonzero"/><path fill="#ffffff" d="M 157.878906 113.046875 C 157.515625 110.992188 156.425781 109.148438 155.316406 107.410156 C 154.230469 105.75 153.183594 104.019531 151.996094 102.433594 C 150.5 100.203125 146.621094 95.953125 147.378906 93.238281 C 147.785156 91.371094 148.707031 89.671875 149.582031 87.988281 C 150.972656 85.300781 152.300781 82.578125 153.789062 79.945312 C 154.425781 78.792969 155.101562 77.601562 155.761719 76.464844 C 156.09375 75.425781 158.082031 73.894531 156.769531 73 C 155.222656 72.453125 149.511719 69.875 148.023438 69.410156 C 144.523438 67.667969 140.890625 67.195312 138.453125 70.757812 C 138.292969 70.800781 132.628906 68.128906 132.546875 68.441406 C 130.019531 69.015625 127.214844 69.621094 124.566406 70.09375 C 123.179688 70.363281 121.773438 70.085938 121.207031 71.5 C 121.15625 71.621094 121.101562 71.753906 121.050781 71.898438 C 118.53125 70.945312 114.097656 68.628906 111.355469 68.476562 C 102.339844 67.375 93.613281 74.453125 92.792969 83.449219 C 90.859375 79.503906 89.378906 75.097656 87.011719 71.453125 C 78.996094 68.070312 81.394531 68.339844 72.796875 69.296875 C 70.261719 69.714844 67.628906 69.402344 65.058594 69.671875 C 62.757812 68.222656 59.542969 68.921875 56.753906 68.71875 C 48.597656 68.539062 39.652344 68.34375 31.785156 70.414062 C 31.269531 70.925781 31.113281 72.0625 30.972656 74.265625 C 30.742188 76.734375 30.253906 79.039062 29.835938 81.832031 C 29.816406 82.007812 29.847656 82.167969 29.933594 82.316406 C 30.023438 82.46875 30.144531 82.578125 30.304688 82.648438 C 31.785156 83.160156 37.277344 86 38.851562 85.578125 C 38.929688 92.40625 36.546875 108.917969 37.023438 115.980469 C 44.335938 119.203125 43.070312 119.390625 50.964844 118.113281 C 53.503906 117.742188 56.234375 117.640625 58.683594 116.855469 C 59.199219 116.519531 59.164062 115.851562 59.261719 115.308594 C 63.617188 117.386719 69.9375 119.773438 74.65625 118.984375 C 75.113281 118.925781 75.492188 118.71875 75.796875 118.371094 C 76.011719 118.097656 76.160156 117.789062 76.238281 117.445312 C 76.804688 115.039062 76.847656 112.679688 77.152344 110.1875 C 77.332031 109.019531 77.542969 107.777344 78.246094 106.789062 C 78.84375 106.039062 79.382812 105.886719 79.652344 106.929688 C 81.25 109.777344 82.128906 113.765625 84.507812 115.914062 L 91.285156 118.765625 C 91.433594 118.832031 91.585938 118.855469 91.746094 118.839844 C 93.097656 118.550781 94.21875 117.460938 95.34375 116.691406 C 95.910156 116.269531 96.511719 115.910156 97.152344 115.609375 C 99.859375 116.707031 104.75 119.15625 107.726562 119.140625 C 111.695312 119.492188 115.867188 118.90625 119.324219 116.847656 C 123.859375 118.886719 126.765625 120.320312 132.007812 119.3125 C 135.492188 119.046875 138.253906 119.957031 138.167969 115.226562 C 145.484375 118.011719 142.4375 118.550781 149.761719 116.246094 C 152.351562 115.574219 154.976562 115.109375 157.554688 114.425781 C 158.078125 114.164062 157.96875 113.527344 157.878906 113.046875 Z M 51.039062 111.503906 C 50.996094 111.839844 50.929688 112.25 50.882812 112.589844 C 49.539062 113.054688 48.160156 113.3125 46.738281 113.367188 C 43.972656 113.703125 41.179688 114.09375 38.402344 114.488281 C 38.8125 107.027344 40.21875 92.042969 40.492188 84.800781 C 41.160156 82.046875 40.167969 81.570312 37.71875 81.335938 C 28.917969 80.550781 31.84375 83.910156 32.890625 71.535156 C 42.707031 69.859375 52.6875 70.152344 62.546875 70.3125 C 63.101562 70.742188 63.046875 71.621094 63.09375 72.269531 C 63.082031 73.648438 62.988281 75.082031 63.09375 76.460938 C 63.164062 77.90625 63.183594 79.417969 62.566406 80.753906 C 58.628906 81.144531 54.101562 81.191406 50.046875 81.605469 C 49.886719 81.699219 49.773438 81.832031 49.695312 82.003906 C 49.621094 82.171875 49.605469 82.347656 49.640625 82.53125 C 49.695312 83.910156 49.753906 86.007812 49.804688 87.375 C 50.121094 94.234375 49.933594 101.117188 50.96875 107.925781 C 51.128906 109.117188 51.152344 110.308594 51.039062 111.503906 Z M 60.351562 85.753906 C 59.640625 89.839844 59.046875 93.949219 58.480469 98.054688 C 58.460938 98.195312 58.441406 98.332031 58.425781 98.46875 C 58.285156 94.332031 58.148438 90.1875 58.011719 86.039062 C 58.269531 85.59375 59.734375 85.917969 60.351562 85.753906 Z M 105.121094 114.726562 C 103.171875 114.90625 101.234375 114.835938 99.304688 114.503906 C 96.441406 114.152344 93.949219 112.25 93.089844 109.527344 C 91.425781 110.628906 89.339844 111.347656 87.757812 112.5 C 86.902344 113.175781 86 113.789062 85.058594 114.34375 C 82.714844 111.65625 80.457031 101.730469 76.96875 100.851562 C 75.5625 101.160156 74.164062 101.378906 72.714844 101.582031 C 67.425781 102.570312 69.234375 110.601562 67.859375 114.453125 C 67.8125 114.578125 67.683594 114.585938 67.5625 114.613281 C 66.792969 114.664062 66.019531 114.667969 65.25 114.617188 C 63.09375 114.382812 57.125 114.59375 58.265625 111.28125 C 59.925781 99.007812 61.414062 86.742188 64.148438 74.644531 C 64.386719 73.585938 64.539062 72.246094 65.046875 71.273438 C 66.875 70.921875 69.410156 71.296875 71.3125 71.007812 C 82.074219 69.601562 78.867188 69.640625 83.46875 78.75 C 86.832031 86.144531 89.859375 93.679688 92.746094 101.269531 C 93.121094 100.8125 94.070312 101.097656 94.648438 100.984375 C 95.503906 100.949219 96.457031 100.882812 97.320312 100.839844 C 102.40625 99.578125 100.253906 102.804688 103.132812 105.089844 C 104.304688 105.828125 105.734375 105.078125 106.652344 104.222656 C 109.152344 101.96875 106.925781 98.445312 104.738281 96.914062 C 98.28125 92.730469 91.144531 87.371094 95.714844 78.824219 C 99.125 70.523438 111.613281 66.683594 118.324219 73.34375 C 119.289062 74.328125 119.980469 75.476562 120.398438 76.792969 C 120.199219 77.601562 120.945312 80.503906 120.054688 80.460938 C 117.476562 81.136719 114.835938 82.3125 112.25 82.714844 C 110.941406 81.382812 111.71875 79.328125 108.617188 78.960938 C 104.421875 79.023438 103.441406 84.167969 106.789062 86.386719 C 109.683594 88.800781 113.949219 89.480469 115.972656 92.898438 C 121.457031 102.046875 116.199219 114.054688 105.121094 114.726562 Z M 96.785156 92.824219 C 99.601562 95.917969 104.449219 97.222656 106.128906 101.222656 L 101.632812 99.339844 C 100.960938 99.230469 100.214844 98.988281 99.332031 99.035156 C 98.378906 97.164062 97.6875 94.832031 96.785156 92.824219 Z M 120.410156 86.945312 C 120.308594 88.355469 120.191406 89.773438 120.054688 91.1875 C 117.941406 89.78125 112.199219 88.125 113.230469 84.820312 C 114.667969 85.230469 118.875 87.828125 120.410156 86.945312 Z M 149.410156 110.320312 C 145.929688 111.183594 142.441406 111.648438 139.082031 113.007812 C 138.675781 113.085938 137.988281 113.59375 137.691406 113.203125 C 136.984375 112.089844 136.519531 110.714844 136.03125 109.515625 C 134.546875 105.941406 132.824219 102.550781 131.472656 99.050781 C 129.617188 96.898438 129.410156 102.238281 129.386719 103.265625 C 129.363281 105.617188 129.679688 107.984375 129.757812 110.328125 C 129.773438 111.671875 130.066406 113.25 129.414062 114.488281 C 129.101562 114.765625 128.640625 114.765625 128.242188 114.808594 C 125.742188 114.703125 123.195312 115.226562 120.664062 115.207031 C 120.085938 115.222656 119.519531 115.15625 118.964844 115 C 118.914062 114.738281 119.128906 114.179688 119.113281 113.953125 C 119.6875 104.773438 121.585938 95.628906 122.011719 86.402344 C 122.667969 81.648438 120.988281 76.464844 122.753906 71.933594 C 125.757812 71.527344 128.957031 70.851562 131.933594 70.179688 C 131.949219 73.234375 132.171875 76.367188 132.230469 79.4375 C 132.394531 80.296875 131.914062 81.570312 132.597656 82.214844 C 132.757812 82.320312 132.933594 82.363281 133.125 82.339844 C 133.316406 82.316406 133.476562 82.238281 133.609375 82.097656 C 135.195312 79.328125 136.5625 76.117188 138.40625 73.4375 C 139.53125 71.894531 140.839844 69.808594 142.820312 69.5625 C 144.101562 69.492188 145.867188 70.214844 147.429688 70.851562 C 149.128906 71.191406 148.015625 72.011719 147.496094 73.066406 C 144.96875 77.351562 142.769531 81.761719 140.507812 86.1875 C 138.207031 90.722656 138.480469 92.761719 141.339844 96.882812 C 144.058594 100.839844 147.183594 104.585938 149.148438 108.992188 C 149.210938 109.371094 149.683594 110.085938 149.410156 110.320312 Z M 149.410156 110.320312 " fill-opacity="1" fill-rule="nonzero"/><path fill="#ffffff" d="M 70.402344 94.546875 C 69.8125 91.601562 71.203125 88.320312 71.355469 85.289062 C 71.585938 84.5 71.132812 83.140625 72.125 82.824219 C 74.121094 83.398438 76.867188 91.164062 77.359375 93.398438 C 77.894531 94.949219 71.183594 94.957031 70.402344 94.546875 Z M 70.402344 94.546875 " fill-opacity="1" fill-rule="nonzero"/></svg>